HIERARCHY
ROOT Hips
{
	OFFSET -0.001795 -0.223333 0.028219
	CHANNELS 6 Xposition Yposition Zposition Zrotation Yrotation Xrotation 
	JOINT LeftUpLeg
	{
		OFFSET 0.069520 -0.091406 -0.006815
		CHANNELS 3 Zrotation Yrotation Xrotation
		JOINT LeftLeg
		{
			OFFSET 0.034277 -0.375199 -0.004496
			CHANNELS 3 Zrotation Yrotation Xrotation
			JOINT LeftFoot
			{
				OFFSET -0.013596 -0.397961 -0.043693
				CHANNELS 3 Zrotation Yrotation Xrotation
				JOINT LeftToe
				{
					OFFSET 0.026358 -0.055791 0.119288
					CHANNELS 3 Zrotation Yrotation Xrotation
					End Site
					{
						OFFSET 0.000000 0.000000 0.000000
					}
				}
			}
		}
	}
	JOINT RightUpLeg
	{
		OFFSET -0.067670 -0.090522 -0.004320
		CHANNELS 3 Zrotation Yrotation Xrotation
		JOINT RightLeg
		{
			OFFSET -0.038290 -0.382569 -0.008850
			CHANNELS 3 Zrotation Yrotation Xrotation
			JOINT RightFoot
			{
				OFFSET 0.015774 -0.398415 -0.042312
				CHANNELS 3 Zrotation Yrotation Xrotation
				JOINT RightToe
				{
					OFFSET -0.025372 -0.048144 0.123348
					CHANNELS 3 Zrotation Yrotation Xrotation
					End Site
					{
						OFFSET 0.000000 0.000000 0.000000
					}
				}
			}
		}
	}
	JOINT Spine
	{
		OFFSET -0.002533 0.108963 -0.026696
		CHANNELS 3 Zrotation Yrotation Xrotation
		JOINT Spine1
		{
			OFFSET 0.005487 0.135180 0.001092
			CHANNELS 3 Zrotation Yrotation Xrotation
			JOINT Spine2
			{
				OFFSET 0.001457 0.052922 0.025425
				CHANNELS 3 Zrotation Yrotation Xrotation
				JOINT Neck
				{
					OFFSET -0.002778 0.213870 -0.042857
					CHANNELS 3 Zrotation Yrotation Xrotation
					JOINT Head
					{
						OFFSET 0.005152 0.064970 0.051349
						CHANNELS 3 Zrotation Yrotation Xrotation
						End Site
						{
							OFFSET 0.000000 0.000000 0.000000
						}
					}
				}
				JOINT LeftShoulder
				{
					OFFSET 0.078845 0.121749 -0.034090
					CHANNELS 3 Zrotation Yrotation Xrotation
					JOINT LeftArm
					{
						OFFSET 0.090977 0.030469 -0.008868
						CHANNELS 3 Zrotation Yrotation Xrotation
						JOINT LeftForeArm
						{
							OFFSET 0.259612 -0.012772 -0.027456
							CHANNELS 3 Zrotation Yrotation Xrotation
							JOINT LeftHand
							{
								OFFSET 0.249234 0.008986 -0.001171
								CHANNELS 3 Zrotation Yrotation Xrotation
								End Site
								{
									OFFSET 0.000000 0.000000 0.000000
								}
							}
						}
					}
				}
				JOINT RightShoulder
				{
					OFFSET -0.081759 0.118833 -0.038615
					CHANNELS 3 Zrotation Yrotation Xrotation
					JOINT RightArm
					{
						OFFSET -0.096012 0.032551 -0.009143
						CHANNELS 3 Zrotation Yrotation Xrotation
						JOINT RightForeArm
						{
							OFFSET -0.253742 -0.013329 -0.021401
							CHANNELS 3 Zrotation Yrotation Xrotation
							JOINT RightHand
							{
								OFFSET -0.255298 0.007772 -0.005559
								CHANNELS 3 Zrotation Yrotation Xrotation
								End Site
								{
									OFFSET 0.000000 0.000000 0.000000
								}
							}
						}
					}
				}
			}
		}
	}
}
MOTION
Frames: 11
Frame Time: 0.050000
0.000000 0.762297 0.000000 0.413801 -20.423934 -33.499760 14.873955 3.126338 -17.008405 -4.190527 8.107641 66.646493 5.116876 9.085573 -6.140621 0.000000 0.000000 0.000000 -16.958306 -0.110755 -14.340378 19.149366 -1.568120 72.848214 -10.672368 -25.221584 1.194242 0.000000 0.000000 0.000000 2.332897 0.226099 34.086422 -15.064274 6.303769 -15.299161 2.428852 7.452153 27.294869 6.114728 -8.863072 13.403299 0.000000 0.000000 0.000000 -11.420989 -3.807528 1.515319 -55.590190 23.924751 -20.660121 -29.724552 -31.656208 11.284759 0.000000 0.000000 0.000000 31.854401 -5.541066 -6.541493 40.876458 -30.513882 -16.102817 28.454229 27.353640 8.008811 0.000000 0.000000 0.000000 
0.002103 0.762671 -0.015127 -0.358858 -21.404712 -34.885130 13.403318 2.649010 -15.588328 -0.524686 5.619309 67.698487 5.688274 10.658133 -5.400270 0.000000 0.000000 0.000000 -16.398830 -0.097042 -13.996799 20.519024 -2.211385 73.368383 -10.983783 -25.685609 3.529663 0.000000 0.000000 0.000000 4.406064 -0.027050 34.219145 -15.963806 6.753055 -15.675306 4.169679 7.015740 30.195210 6.295135 -8.689768 11.031985 0.000000 0.000000 0.000000 -10.688943 -4.436356 1.861532 -56.345387 21.681362 -20.166692 -35.705903 -29.585465 12.709656 0.000000 0.000000 0.000000 29.990233 -3.864947 -5.012044 44.743070 -28.940009 -17.454612 29.739209 29.476687 9.252638 0.000000 0.000000 0.000000 
0.005446 0.762254 -0.030622 0.425554 -21.407218 -36.276644 13.735790 2.762209 -15.022933 -2.253775 7.284323 67.787751 5.309619 9.091684 -8.445488 0.000000 0.000000 0.000000 -16.311122 -0.081509 -15.403256 21.442291 -2.807927 73.059185 -11.559032 -26.896291 3.190883 0.000000 0.000000 0.000000 3.852183 0.165275 34.681959 -12.876232 5.727658 -11.791226 3.097738 8.416676 28.174318 6.874861 -8.388740 7.060675 0.000000 0.000000 0.000000 -10.936224 -5.735377 2.175899 -57.395378 23.085665 -21.002362 -38.666607 -31.782422 14.444716 0.000000 0.000000 0.000000 25.454356 -3.426590 -3.814122 47.319115 -27.847576 -17.961509 33.108688 30.420593 10.638186 0.000000 0.000000 0.000000 
0.009416 0.767653 -0.046515 1.933993 -22.245671 -39.160066 11.830876 2.173050 -12.010555 -0.899401 6.609948 66.034586 5.199421 9.384540 -6.771343 0.000000 0.000000 0.000000 -17.260259 -0.169411 -13.104137 19.809477 -0.759165 71.464347 -10.519941 -24.642029 3.555386 0.000000 0.000000 0.000000 4.402756 0.284004 35.369376 -13.588624 6.174429 -11.582936 3.035039 8.226589 31.378046 6.213977 -6.948668 3.230416 0.000000 0.000000 0.000000 -8.754965 -5.240348 2.019787 -60.043581 22.325589 -21.784799 -39.644303 -32.014689 15.302577 0.000000 0.000000 0.000000 23.922350 -2.795821 -3.214731 49.202075 -25.474111 -18.058163 32.643515 28.970730 10.096775 0.000000 0.000000 0.000000 
0.013353 0.768505 -0.062967 2.615965 -22.049638 -39.638072 11.918333 2.235310 -12.623397 -1.370227 6.997231 65.538545 4.878162 8.933427 -5.197314 0.000000 0.000000 0.000000 -17.145043 -0.160154 -14.661354 19.734848 -0.645863 71.223777 -10.910337 -25.307629 5.650556 0.000000 0.000000 0.000000 4.251578 0.447575 36.944509 -13.228592 6.027319 -11.397456 3.235295 8.239840 30.987178 6.887698 -7.272179 1.016601 0.000000 0.000000 0.000000 -9.320391 -5.092470 1.948224 -58.950612 23.124080 -21.810621 -44.064968 -33.369410 17.750435 0.000000 0.000000 0.000000 22.431656 -3.661629 -3.509714 48.665021 -23.832837 -17.202715 35.929488 29.798801 11.389210 0.000000 0.000000 0.000000 
0.016505 0.766246 -0.079470 3.556398 -22.157584 -40.878774 12.170355 2.334222 -12.102010 -1.899453 7.346568 64.356680 4.852732 9.061634 -4.298108 0.000000 0.000000 0.000000 -16.773150 -0.138233 -15.853937 19.066255 0.130940 71.418258 -10.366741 -24.263014 5.881560 0.000000 0.000000 0.000000 4.877376 0.448724 37.716105 -14.241969 6.560624 -11.772445 3.432566 7.415856 32.584222 6.887612 -7.019021 -1.138311 0.000000 0.000000 0.000000 -7.716729 -5.181160 1.983857 -59.224520 23.219887 -21.963143 -47.827995 -33.464206 19.680254 0.000000 0.000000 0.000000 21.446175 -3.517171 -3.401645 48.348856 -23.146503 -16.948130 38.394290 29.757402 12.117795 0.000000 0.000000 0.000000 
0.018647 0.761726 -0.095576 3.652690 -21.493687 -41.408308 12.827614 2.524661 -12.518589 -1.885422 6.808093 63.842322 4.331595 8.142019 -3.223307 0.000000 0.000000 0.000000 -16.590172 -0.173386 -16.917843 19.820984 -0.709198 71.445754 -10.258558 -24.048125 5.990443 0.000000 0.000000 0.000000 5.085677 0.397439 38.524895 -13.650732 6.360139 -11.372949 2.864739 6.802527 32.230299 7.273394 -7.189260 -2.618067 0.000000 0.000000 0.000000 -6.845255 -5.432634 2.019381 -58.877563 23.634156 -21.967629 -51.139540 -33.742285 21.329679 0.000000 0.000000 0.000000 20.949229 -3.170363 -3.223679 48.390524 -23.281829 -16.998628 41.389412 30.258792 13.263707 0.000000 0.000000 0.000000 
0.019986 0.755204 -0.110211 3.788096 -20.966128 -42.406264 13.107832 2.583510 -11.969877 -2.318146 6.837862 63.892919 4.573587 8.406725 -4.323815 0.000000 0.000000 0.000000 -16.022647 -0.173664 -17.771716 20.219129 -1.155987 72.886204 -10.168929 -23.884777 5.907292 0.000000 0.000000 0.000000 5.510091 0.294535 39.127041 -12.893019 5.974843 -11.643054 2.180023 6.192384 33.210822 7.668254 -7.262162 -5.057033 0.000000 0.000000 0.000000 -6.282871 -6.381059 2.342939 -58.495732 23.243851 -21.684678 -52.517017 -34.357380 22.470271 0.000000 0.000000 0.000000 20.584416 -3.369612 -3.285104 48.569124 -22.998960 -17.069042 43.265937 29.628553 13.629930 0.000000 0.000000 0.000000 
0.021032 0.748296 -0.123697 4.063617 -20.519202 -43.585700 13.568401 2.709536 -11.691626 -2.252219 6.662963 64.767964 4.250106 7.716301 -4.156288 0.000000 0.000000 0.000000 -15.548621 -0.159404 -18.408010 20.332318 -1.305822 74.210930 -9.934558 -23.429506 6.302492 0.000000 0.000000 0.000000 5.644291 0.277225 39.561569 -12.468552 5.878501 -10.954749 1.661889 5.418505 33.178908 7.347996 -6.760888 -6.559611 0.000000 0.000000 0.000000 -5.477783 -6.590168 2.349995 -58.089571 22.294884 -20.969608 -53.678237 -34.289521 23.034071 0.000000 0.000000 0.000000 19.615861 -3.382948 -3.265083 49.901915 -23.442192 -17.742341 44.371878 28.733885 13.571211 0.000000 0.000000 0.000000 
0.022152 0.744002 -0.136539 4.496941 -20.333673 -44.467931 13.576029 2.710428 -11.393063 -2.362710 6.774551 64.934520 4.090630 7.485183 -3.641661 0.000000 0.000000 0.000000 -14.730207 -0.055517 -18.862992 19.899967 -0.892715 75.564425 -9.586430 -22.780778 5.530684 0.000000 0.000000 0.000000 6.104710 0.198101 39.597915 -12.249409 5.722167 -11.328224 0.891633 4.935339 34.169102 7.804998 -6.987166 -8.646898 0.000000 0.000000 0.000000 -5.595449 -6.886560 2.488924 -57.411255 21.136829 -20.245424 -52.677508 -34.949386 23.092650 0.000000 0.000000 0.000000 19.870769 -3.077269 -3.190268 50.162521 -22.747675 -17.657660 43.699180 28.612158 13.312349 0.000000 0.000000 0.000000 
0.023437 0.742593 -0.149300 4.631397 -19.981434 -45.423480 13.047443 2.576804 -11.484252 -2.650518 6.946696 64.987662 4.195275 7.965908 -2.430455 0.000000 0.000000 0.000000 -14.530660 -0.075840 -18.897129 19.626057 -0.726950 75.672616 -9.510577 -22.607425 6.492301 0.000000 0.000000 0.000000 6.126613 0.190765 39.665994 -11.927149 5.566966 -11.379844 0.811342 5.118108 34.591730 7.892457 -7.085921 -8.617885 0.000000 0.000000 0.000000 -5.966603 -7.823614 2.833047 -57.181433 19.841565 -19.662994 -51.145356 -35.752031 22.809377 0.000000 0.000000 0.000000 19.488699 -2.692389 -2.842950 51.422057 -22.767247 -18.202554 43.738510 28.501309 13.441464 0.000000 0.000000 0.000000 
